<svg xmlns="http://www.w3.org/2000/svg" viewBox="-0.5 -0.5 18.0 18.0" shape-rendering="crispEdges">
  <rect x="1" y="8" width="1" height="1" fill="#13223c"/>
  <rect x="1" y="9" width="1" height="1" fill="#121c34"/>
  <rect x="3" y="3" width="1" height="1" fill="#0e283c"/>
  <rect x="3" y="13" width="1" height="1" fill="#0f0b18"/>
  <rect x="4" y="7" width="1" height="1" fill="#090c19"/>
  <rect x="4" y="11" width="1" height="1" fill="#1e1732"/>
  <rect x="5" y="4" width="1" height="1" fill="#13223c"/>
  <rect x="5" y="9" width="1" height="1" fill="#1f1b3a"/>
  <rect x="5" y="10" width="1" height="1" fill="#1e1732"/>
  <rect x="5" y="11" width="1" height="1" fill="#0f0b18"/>
  <rect x="5" y="14" width="1" height="1" fill="#130a17"/>
  <rect x="6" y="6" width="1" height="1" fill="#161934"/>
  <rect x="6" y="8" width="1" height="1" fill="#0d0b18"/>
  <rect x="6" y="14" width="1" height="1" fill="#1f0e23"/>
  <rect x="7" y="4" width="1" height="1" fill="#161e3c"/>
  <rect x="7" y="6" width="1" height="1" fill="#191933"/>
  <rect x="8" y="16" width="1" height="1" fill="#351430"/>
  <rect x="9" y="5" width="1" height="1" fill="#0d0b18"/>
  <rect x="9" y="8" width="1" height="1" fill="#110a18"/>
  <rect x="9" y="14" width="1" height="1" fill="#341532"/>
  <rect x="9" y="15" width="1" height="1" fill="#351430"/>
  <rect x="9" y="16" width="1" height="1" fill="#2f1128"/>
  <rect x="10" y="4" width="1" height="1" fill="#1f1b3a"/>
  <rect x="10" y="7" width="1" height="1" fill="#110a18"/>
  <rect x="10" y="8" width="1" height="1" fill="#120a17"/>
  <rect x="10" y="10" width="1" height="1" fill="#140917"/>
  <rect x="10" y="11" width="1" height="1" fill="#200e22"/>
  <rect x="11" y="1" width="1" height="1" fill="#191d3b"/>
  <rect x="11" y="2" width="1" height="1" fill="#1c1c3b"/>
  <rect x="11" y="6" width="1" height="1" fill="#1a1024"/>
  <rect x="11" y="7" width="1" height="1" fill="#120a17"/>
  <rect x="11" y="15" width="1" height="1" fill="#170812"/>
  <rect x="12" y="4" width="1" height="1" fill="#201631"/>
  <rect x="12" y="5" width="1" height="1" fill="#1a1024"/>
  <rect x="12" y="11" width="1" height="1" fill="#160815"/>
  <rect x="12" y="14" width="1" height="1" fill="#170812"/>
  <rect x="12" y="15" width="1" height="1" fill="#170712"/>
  <rect x="13" y="2" width="1" height="1" fill="#221b3a"/>
  <rect x="13" y="3" width="1" height="1" fill="#201631"/>
  <rect x="13" y="4" width="1" height="1" fill="#1a1024"/>
  <rect x="13" y="7" width="1" height="1" fill="#140917"/>
  <rect x="13" y="13" width="1" height="1" fill="#170812"/>
  <rect x="13" y="14" width="1" height="1" fill="#170712"/>
  <rect x="14" y="6" width="1" height="1" fill="#140917"/>
  <rect x="14" y="7" width="1" height="1" fill="#150916"/>
  <rect x="14" y="9" width="1" height="1" fill="#160815"/>
  <rect x="14" y="13" width="1" height="1" fill="#170712"/>
  <rect x="15" y="12" width="1" height="1" fill="#230b1b"/>
  <rect x="15" y="13" width="1" height="1" fill="#180711"/>
  <rect x="16" y="10" width="1" height="1" fill="#2f1026"/>
  <rect x="16" y="11" width="1" height="1" fill="#230b1b"/>
  <rect x="16" y="12" width="1" height="1" fill="#180711"/>
  <rect x="0" y="7" width="1" height="1" fill="#4e89f2"/>
  <rect x="0" y="8" width="1" height="1" fill="#4970d2"/>
  <rect x="0" y="9" width="1" height="1" fill="#3a4e9b"/>
  <rect x="0" y="10" width="1" height="1" fill="#2b3265"/>
  <rect x="1" y="10" width="1" height="1" fill="#494998"/>
  <rect x="1" y="11" width="1" height="1" fill="#352f63"/>
  <rect x="2" y="2" width="1" height="1" fill="#39a0f2"/>
  <rect x="2" y="3" width="1" height="1" fill="#4198f2"/>
  <rect x="2" y="4" width="1" height="1" fill="#2d5c9b"/>
  <rect x="2" y="5" width="1" height="1" fill="#213a66"/>
  <rect x="2" y="8" width="1" height="1" fill="#6776ef"/>
  <rect x="2" y="9" width="1" height="1" fill="#7373ee"/>
  <rect x="2" y="10" width="1" height="1" fill="#6e60cc"/>
  <rect x="2" y="11" width="1" height="1" fill="#594595"/>
  <rect x="2" y="12" width="1" height="1" fill="#3f2c61"/>
  <rect x="3" y="4" width="1" height="1" fill="#4477d2"/>
  <rect x="3" y="5" width="1" height="1" fill="#36529b"/>
  <rect x="3" y="6" width="1" height="1" fill="#263366"/>
  <rect x="3" y="9" width="1" height="1" fill="#514796"/>
  <rect x="3" y="10" width="1" height="1" fill="#785eca"/>
  <rect x="3" y="11" width="1" height="1" fill="#3f2c61"/>
  <rect x="3" y="12" width="1" height="1" fill="#442b60"/>
  <rect x="4" y="3" width="1" height="1" fill="#4e89f2"/>
  <rect x="4" y="4" width="1" height="1" fill="#4970d2"/>
  <rect x="4" y="5" width="1" height="1" fill="#4f69d2"/>
  <rect x="4" y="6" width="1" height="1" fill="#2b3265"/>
  <rect x="4" y="8" width="1" height="1" fill="#7e6feb"/>
  <rect x="4" y="9" width="1" height="1" fill="#785eca"/>
  <rect x="4" y="10" width="1" height="1" fill="#3f2c61"/>
  <rect x="4" y="12" width="1" height="1" fill="#6f3e90"/>
  <rect x="4" y="13" width="1" height="1" fill="#4e285e"/>
  <rect x="5" y="5" width="1" height="1" fill="#5966d0"/>
  <rect x="5" y="6" width="1" height="1" fill="#494998"/>
  <rect x="5" y="7" width="1" height="1" fill="#352f63"/>
  <rect x="5" y="12" width="1" height="1" fill="#4e285e"/>
  <rect x="5" y="13" width="1" height="1" fill="#7e3a8d"/>
  <rect x="6" y="3" width="1" height="1" fill="#5b7af2"/>
  <rect x="6" y="4" width="1" height="1" fill="#5966d0"/>
  <rect x="6" y="5" width="1" height="1" fill="#6464ce"/>
  <rect x="6" y="7" width="1" height="1" fill="#594595"/>
  <rect x="6" y="12" width="1" height="1" fill="#7e3a8d"/>
  <rect x="6" y="13" width="1" height="1" fill="#813888"/>
  <rect x="7" y="5" width="1" height="1" fill="#514796"/>
  <rect x="7" y="7" width="1" height="1" fill="#604393"/>
  <rect x="7" y="8" width="1" height="1" fill="#684192"/>
  <rect x="7" y="9" width="1" height="1" fill="#49295f"/>
  <rect x="7" y="11" width="1" height="1" fill="#53265d"/>
  <rect x="7" y="12" width="1" height="1" fill="#813888"/>
  <rect x="7" y="13" width="1" height="1" fill="#b24bb3"/>
  <rect x="7" y="14" width="1" height="1" fill="#b549ad"/>
  <rect x="7" y="15" width="1" height="1" fill="#d551c1"/>
  <rect x="8" y="1" width="1" height="1" fill="#5b7af2"/>
  <rect x="8" y="2" width="1" height="1" fill="#6776ef"/>
  <rect x="8" y="4" width="1" height="1" fill="#352f63"/>
  <rect x="8" y="6" width="1" height="1" fill="#3f2c61"/>
  <rect x="8" y="7" width="1" height="1" fill="#442b60"/>
  <rect x="8" y="8" width="1" height="1" fill="#9755c3"/>
  <rect x="8" y="9" width="1" height="1" fill="#773d8e"/>
  <rect x="8" y="10" width="1" height="1" fill="#ab4fbf"/>
  <rect x="8" y="11" width="1" height="1" fill="#813888"/>
  <rect x="8" y="12" width="1" height="1" fill="#b24bb3"/>
  <rect x="8" y="13" width="1" height="1" fill="#d154c8"/>
  <rect x="8" y="14" width="1" height="1" fill="#d551c1"/>
  <rect x="8" y="15" width="1" height="1" fill="#bc44a1"/>
  <rect x="9" y="2" width="1" height="1" fill="#494998"/>
  <rect x="9" y="3" width="1" height="1" fill="#7e6feb"/>
  <rect x="9" y="6" width="1" height="1" fill="#442b60"/>
  <rect x="9" y="7" width="1" height="1" fill="#49295f"/>
  <rect x="9" y="9" width="1" height="1" fill="#53265d"/>
  <rect x="9" y="10" width="1" height="1" fill="#813888"/>
  <rect x="9" y="11" width="1" height="1" fill="#b24bb3"/>
  <rect x="9" y="12" width="1" height="1" fill="#85357f"/>
  <rect x="9" y="13" width="1" height="1" fill="#5a2251"/>
  <rect x="10" y="0" width="1" height="1" fill="#6776ef"/>
  <rect x="10" y="1" width="1" height="1" fill="#7373ee"/>
  <rect x="10" y="2" width="1" height="1" fill="#6e60cc"/>
  <rect x="10" y="3" width="1" height="1" fill="#785eca"/>
  <rect x="10" y="5" width="1" height="1" fill="#684192"/>
  <rect x="10" y="6" width="1" height="1" fill="#49295f"/>
  <rect x="10" y="12" width="1" height="1" fill="#88347b"/>
  <rect x="10" y="13" width="1" height="1" fill="#8a3276"/>
  <rect x="10" y="14" width="1" height="1" fill="#5d204b"/>
  <rect x="11" y="3" width="1" height="1" fill="#825bc7"/>
  <rect x="11" y="4" width="1" height="1" fill="#684192"/>
  <rect x="11" y="5" width="1" height="1" fill="#49295f"/>
  <rect x="11" y="9" width="1" height="1" fill="#833784"/>
  <rect x="11" y="10" width="1" height="1" fill="#582354"/>
  <rect x="11" y="13" width="1" height="1" fill="#5d204b"/>
  <rect x="11" y="14" width="1" height="1" fill="#5e1f48"/>
  <rect x="12" y="1" width="1" height="1" fill="#8b6ce9"/>
  <rect x="12" y="2" width="1" height="1" fill="#825bc7"/>
  <rect x="12" y="3" width="1" height="1" fill="#684192"/>
  <rect x="12" y="6" width="1" height="1" fill="#53265d"/>
  <rect x="12" y="10" width="1" height="1" fill="#88347b"/>
  <rect x="12" y="12" width="1" height="1" fill="#5d204b"/>
  <rect x="12" y="13" width="1" height="1" fill="#5e1f48"/>
  <rect x="13" y="5" width="1" height="1" fill="#53265d"/>
  <rect x="13" y="6" width="1" height="1" fill="#55255a"/>
  <rect x="13" y="8" width="1" height="1" fill="#582354"/>
  <rect x="13" y="9" width="1" height="1" fill="#b946a7"/>
  <rect x="13" y="10" width="1" height="1" fill="#bc44a1"/>
  <rect x="13" y="11" width="1" height="1" fill="#8d3172"/>
  <rect x="13" y="12" width="1" height="1" fill="#5e1f48"/>
  <rect x="14" y="10" width="1" height="1" fill="#8d3172"/>
  <rect x="14" y="11" width="1" height="1" fill="#8e2f6e"/>
  <rect x="14" y="12" width="1" height="1" fill="#601e45"/>
  <rect x="15" y="9" width="1" height="1" fill="#bf429b"/>
  <rect x="15" y="10" width="1" height="1" fill="#8e2f6e"/>
  <rect x="15" y="11" width="1" height="1" fill="#601e45"/>
</svg>