<svg xmlns="http://www.w3.org/2000/svg" viewBox="-0.5 0.5 17.0 14.0" shape-rendering="crispEdges">
  <rect x="3" y="7" width="1" height="1" fill="#3f360c"/>
  <rect x="3" y="13" width="1" height="1" fill="#3f3f3f"/>
  <rect x="4" y="12" width="1" height="1" fill="#3f3f3f"/>
  <rect x="4" y="13" width="1" height="1" fill="#313f3f"/>
  <rect x="5" y="6" width="1" height="1" fill="#3f390f"/>
  <rect x="5" y="7" width="1" height="1" fill="#3f3c12"/>
  <rect x="5" y="11" width="1" height="1" fill="#3f3f3f"/>
  <rect x="5" y="12" width="1" height="1" fill="#313f3f"/>
  <rect x="6" y="5" width="1" height="1" fill="#3f390f"/>
  <rect x="6" y="6" width="1" height="1" fill="#3f3c12"/>
  <rect x="6" y="11" width="1" height="1" fill="#313f3f"/>
  <rect x="7" y="5" width="1" height="1" fill="#3f3c12"/>
  <rect x="7" y="10" width="1" height="1" fill="#313f3f"/>
  <rect x="7" y="11" width="1" height="1" fill="#233f3f"/>
  <rect x="8" y="5" width="1" height="1" fill="#3f3f15"/>
  <rect x="9" y="3" width="1" height="1" fill="#3f3c12"/>
  <rect x="9" y="11" width="1" height="1" fill="#123c3c"/>
  <rect x="11" y="7" width="1" height="1" fill="#233f3f"/>
  <rect x="12" y="7" width="1" height="1" fill="#153f3f"/>
  <rect x="12" y="9" width="1" height="1" fill="#0f3939"/>
  <rect x="12" y="13" width="1" height="1" fill="#032d2d"/>
  <rect x="13" y="6" width="1" height="1" fill="#153f3f"/>
  <rect x="13" y="7" width="1" height="1" fill="#123c3c"/>
  <rect x="13" y="11" width="1" height="1" fill="#063030"/>
  <rect x="13" y="12" width="1" height="1" fill="#032d2d"/>
  <rect x="13" y="13" width="1" height="1" fill="#002a2a"/>
  <rect x="14" y="5" width="1" height="1" fill="#153f3f"/>
  <rect x="14" y="6" width="1" height="1" fill="#123c3c"/>
  <rect x="15" y="5" width="1" height="1" fill="#123c3c"/>
  <rect x="0" y="4" width="1" height="1" fill="#ffaa00"/>
  <rect x="1" y="4" width="1" height="1" fill="#ffb60c"/>
  <rect x="1" y="5" width="1" height="1" fill="#ffc218"/>
  <rect x="2" y="4" width="1" height="1" fill="#ffc218"/>
  <rect x="2" y="5" width="1" height="1" fill="#ffce24"/>
  <rect x="2" y="6" width="1" height="1" fill="#ffda30"/>
  <rect x="2" y="10" width="1" height="1" fill="#ffff8d"/>
  <rect x="2" y="11" width="1" height="1" fill="#ffffc6"/>
  <rect x="2" y="12" width="1" height="1" fill="#ffffff"/>
  <rect x="3" y="4" width="1" height="1" fill="#ffce24"/>
  <rect x="3" y="5" width="1" height="1" fill="#ffda30"/>
  <rect x="3" y="6" width="1" height="1" fill="#ffe63c"/>
  <rect x="3" y="8" width="1" height="1" fill="#ffff55"/>
  <rect x="3" y="9" width="1" height="1" fill="#ffff8d"/>
  <rect x="3" y="10" width="1" height="1" fill="#ffffc6"/>
  <rect x="3" y="11" width="1" height="1" fill="#ffffff"/>
  <rect x="3" y="12" width="1" height="1" fill="#c6ffff"/>
  <rect x="4" y="4" width="1" height="1" fill="#ffda30"/>
  <rect x="4" y="5" width="1" height="1" fill="#ffe63c"/>
  <rect x="4" y="6" width="1" height="1" fill="#fff248"/>
  <rect x="4" y="7" width="1" height="1" fill="#ffff55"/>
  <rect x="4" y="8" width="1" height="1" fill="#ffff8d"/>
  <rect x="4" y="9" width="1" height="1" fill="#ffffc6"/>
  <rect x="4" y="10" width="1" height="1" fill="#ffffff"/>
  <rect x="4" y="11" width="1" height="1" fill="#c6ffff"/>
  <rect x="5" y="4" width="1" height="1" fill="#ffe63c"/>
  <rect x="5" y="5" width="1" height="1" fill="#fff248"/>
  <rect x="5" y="8" width="1" height="1" fill="#ffffc6"/>
  <rect x="5" y="9" width="1" height="1" fill="#ffffff"/>
  <rect x="5" y="10" width="1" height="1" fill="#c6ffff"/>
  <rect x="6" y="2" width="1" height="1" fill="#ffda30"/>
  <rect x="6" y="3" width="1" height="1" fill="#ffe63c"/>
  <rect x="6" y="4" width="1" height="1" fill="#fff248"/>
  <rect x="6" y="9" width="1" height="1" fill="#c6ffff"/>
  <rect x="6" y="10" width="1" height="1" fill="#8dffff"/>
  <rect x="7" y="1" width="1" height="1" fill="#ffda30"/>
  <rect x="7" y="2" width="1" height="1" fill="#ffe63c"/>
  <rect x="7" y="3" width="1" height="1" fill="#fff248"/>
  <rect x="7" y="4" width="1" height="1" fill="#ffff55"/>
  <rect x="7" y="9" width="1" height="1" fill="#8dffff"/>
  <rect x="8" y="2" width="1" height="1" fill="#fff248"/>
  <rect x="8" y="3" width="1" height="1" fill="#ffff55"/>
  <rect x="8" y="4" width="1" height="1" fill="#ffff8d"/>
  <rect x="8" y="9" width="1" height="1" fill="#55ffff"/>
  <rect x="8" y="10" width="1" height="1" fill="#48f2f2"/>
  <rect x="9" y="4" width="1" height="1" fill="#ffffc6"/>
  <rect x="9" y="5" width="1" height="1" fill="#ffffff"/>
  <rect x="9" y="8" width="1" height="1" fill="#55ffff"/>
  <rect x="9" y="9" width="1" height="1" fill="#48f2f2"/>
  <rect x="9" y="10" width="1" height="1" fill="#3ce6e6"/>
  <rect x="10" y="4" width="1" height="1" fill="#ffffff"/>
  <rect x="10" y="5" width="1" height="1" fill="#c6ffff"/>
  <rect x="10" y="6" width="1" height="1" fill="#8dffff"/>
  <rect x="10" y="7" width="1" height="1" fill="#55ffff"/>
  <rect x="10" y="8" width="1" height="1" fill="#48f2f2"/>
  <rect x="10" y="9" width="1" height="1" fill="#3ce6e6"/>
  <rect x="10" y="10" width="1" height="1" fill="#30dada"/>
  <rect x="10" y="11" width="1" height="1" fill="#24cece"/>
  <rect x="11" y="4" width="1" height="1" fill="#c6ffff"/>
  <rect x="11" y="5" width="1" height="1" fill="#8dffff"/>
  <rect x="11" y="6" width="1" height="1" fill="#55ffff"/>
  <rect x="11" y="8" width="1" height="1" fill="#3ce6e6"/>
  <rect x="11" y="9" width="1" height="1" fill="#30dada"/>
  <rect x="11" y="10" width="1" height="1" fill="#24cece"/>
  <rect x="11" y="11" width="1" height="1" fill="#18c2c2"/>
  <rect x="11" y="12" width="1" height="1" fill="#0cb6b6"/>
  <rect x="12" y="4" width="1" height="1" fill="#8dffff"/>
  <rect x="12" y="5" width="1" height="1" fill="#55ffff"/>
  <rect x="12" y="6" width="1" height="1" fill="#48f2f2"/>
  <rect x="12" y="10" width="1" height="1" fill="#18c2c2"/>
  <rect x="12" y="11" width="1" height="1" fill="#0cb6b6"/>
  <rect x="12" y="12" width="1" height="1" fill="#00aaaa"/>
  <rect x="13" y="4" width="1" height="1" fill="#55ffff"/>
  <rect x="13" y="5" width="1" height="1" fill="#48f2f2"/>
  <rect x="14" y="4" width="1" height="1" fill="#48f2f2"/>
</svg>